<?xml version="1.0" standalone="no"?>
<!DOCTYPE svg PUBLIC "-//W3C//DTD SVG 20010904//EN"
 "http://www.w3.org/TR/2001/REC-SVG-20010904/DTD/svg10.dtd">
<svg version="1.0" xmlns="http://www.w3.org/2000/svg"
 width="700.000000pt" height="700.000000pt" viewBox="0 0 700.000000 700.000000"
 preserveAspectRatio="xMidYMid meet">
<metadata>
Created by potrace 1.14, written by Peter Selinger 2001-2017
</metadata>
<g transform="translate(0.000000,700.000000) scale(0.100000,-0.100000)"
fill="#000000" stroke="none">
<path d="M0 3500 l0 -3500 3500 0 3500 0 0 3500 0 3500 -3500 0 -3500 0 0
-3500z m6280 0 l0 -2780 -2780 0 -2780 0 0 2780 0 2780 2780 0 2780 0 0 -2780z"/>
<path d="M1190 6093 c-56 -19 -85 -39 -180 -123 -41 -37 -87 -75 -102 -85
l-28 -17 19 -27 c11 -14 33 -42 49 -61 l29 -34 54 40 c30 22 60 44 67 48 9 6
12 -34 12 -183 l0 -191 -95 0 -95 0 0 -65 0 -65 280 0 281 0 -3 68 -3 67 -92
3 -93 3 0 319 0 320 -27 0 c-16 -1 -48 -8 -73 -17z"/>
<path d="M1590 5895 c0 -212 6 -236 66 -255 32 -11 38 -10 57 8 53 49 164 70
211 39 13 -9 32 -37 41 -62 24 -62 16 -119 -24 -159 -28 -28 -37 -31 -89 -30
-39 1 -81 11 -136 33 -43 17 -80 30 -81 29 0 -2 -18 -24 -38 -49 -20 -25 -37
-50 -37 -55 0 -14 79 -60 135 -79 65 -21 197 -22 272 0 70 20 152 98 171 161
16 54 15 149 -2 197 -49 136 -200 195 -367 142 -17 -6 -19 -1 -19 54 l0 61
180 0 c99 0 180 2 180 4 0 10 -44 122 -53 134 -7 9 -67 12 -238 12 l-229 0 0
-185z"/>
<path d="M2433 5073 l-243 -3 0 -305 0 -305 200 0 200 0 0 -965 0 -965 -166 0
c-129 0 -173 -3 -199 -15 -31 -16 -32 -18 -38 -98 -4 -45 -7 -171 -7 -279 l0
-198 790 0 790 0 2 213 c4 341 5 337 -21 359 -21 16 -45 18 -247 18 l-224 0 0
199 c0 172 2 200 17 212 12 11 76 16 267 20 302 8 420 25 589 85 252 91 440
250 544 459 126 253 147 624 53 908 -47 139 -101 228 -205 332 -114 114 -219
178 -387 233 -284 94 -549 108 -1715 95z m1157 -613 c227 -16 317 -47 403
-139 98 -105 132 -238 103 -406 -39 -232 -152 -356 -364 -400 -59 -12 -326
-35 -414 -35 l-28 0 0 495 0 495 78 0 c42 0 142 -5 222 -10z"/>
</g>
</svg>
