<?xml version="1.0" encoding="utf-8"?>
<!-- Generator: Adobe Illustrator 23.0.2, SVG Export Plug-In . SVG Version: 6.00 Build 0)  -->
<svg version="1.1" id="Слой_1" xmlns="http://www.w3.org/2000/svg" xmlns:xlink="http://www.w3.org/1999/xlink" x="0px" y="0px"
	 viewBox="0 0 392 392" style="enable-background:new 0 0 392 392;" xml:space="preserve">
<style type="text/css">
	.st0{fill:#108DC7;}
	.st1{display:none;fill:#FFFFFF;}
</style>
<g>
	<path class="st0" d="M0,0c130.6,0,261.2,0,392,0c0,130.7,0,261.3,0,392c-2.2-0.1-4.3-0.2-6.5-0.2c-126.2,0-252.3,0-378.5,0
		c-2.1,0-4.2,0-6.9,0c0-2.6,0-4.7,0-6.9c0-126,0-252,0-378C0.2,4.7,0.1,2.3,0,0z M40.2,40c0,104.3,0,208,0,311.9
		c104.1,0,207.8,0,311.6,0c0-104.1,0-208,0-311.9C247.7,40,144.1,40,40.2,40z"/>
	<path class="st1" d="M0,0c0.1,2.3,0.2,4.7,0.2,7c0,126,0,252,0,378c0,2.1,0,4.2,0,6.9c2.6,0,4.7,0,6.9,0c126.2,0,252.3,0,378.5,0
		c2.2,0,4.3,0.1,6.5,0.2c-1.3,0.3-2.7,1-4,1c-59.7,0-119.3,0-179,0c-70,0-140,0-210,0c0-129.5,0-259,0-388.5C-1,3-0.3,1.5,0,0z"/>
	<path class="st1" d="M40.2,40c104,0,207.6,0,311.6,0c0,103.9,0,207.7,0,311.9c-103.8,0-207.5,0-311.6,0
		C40.2,248,40.2,144.3,40.2,40z M183,250.7c0-7.3,0.2-13.6-0.1-19.9c-0.1-3.7,1.4-4.5,4.7-4.5c7.3,0,14.7,0,22-0.5
		c11.5-0.8,22.7-3.4,32.8-9.2c16.9-9.7,24.6-25,26-44c2.1-28.3-9.1-51.9-39.7-60.3c-8.7-2.4-18-3.7-27-3.9
		c-24.8-0.5-49.6-0.2-74.4-0.2c-1.4,0-2.8,0.2-4.3,0.4c0,11.2,0,21.9,0,33.3c7.8,0,15.2,0,22.6,0c0,36.5,0,72.3,0,108.8
		c-6.6,0-12.7-0.1-18.8,0.1c-1.4,0.1-4,1.4-4,2.3c-0.3,10.1-0.2,20.2-0.2,30.4c29.6,0,58.6,0,88.1,0c0-9.5-0.2-18.6,0.1-27.7
		c0.1-3.9-1.1-5.3-5.1-5.1C198.3,250.8,191.1,250.7,183,250.7z M118,59.8c-1.5-3.4-2.3-7.7-3.5-7.8c-8.2-0.6-16.5-0.3-25.3-0.3
		c0,6.3,0.3,11.9-0.1,17.5c-0.3,4.3,1.2,6.6,5.3,7.3c1.2-0.9,2.3-2,3.6-2.6c4-1.9,8.6-2.8,11.4,1.1c1.6,2.2,2,6.6,0.9,9.1
		c-1.8,4.2-6.3,4.5-10.4,3.3c-2.7-0.8-5.2-2.1-8.1-3.2c-1.5,1.8-3,3.7-4.7,5.7c6.1,5,12.7,6.1,19.9,5c9.9-1.5,15-9.3,12.7-19.3
		c-1.8-7.9-10.2-12.1-19-9.4c-0.9,0.3-1.8,0.5-3.1,0.8c0-2.5,0-4.5,0-7.2C104.1,59.8,110.1,59.8,118,59.8z M71.8,86.1
		c0-12.3,0-23.9,0-36C61.2,50,57.2,59.3,49.5,63.6c2.1,2.5,3.7,4.5,5.3,6.4c2.6-2,4.6-3.6,7.4-5.6c0,7.6,0,14.5,0,21.9
		c-3.6,0-7,0-10.6,0c0,2.7,0,5,0,7.2c10.5,0,20.8,0,30.8,0c0-2.6,0-4.8,0-7.4C78.8,86.1,75.7,86.1,71.8,86.1z"/>
	<path d="M183,250.7c8,0,15.3,0.2,22.6-0.1c3.9-0.1,5.2,1.2,5.1,5.1c-0.3,9.1-0.1,18.3-0.1,27.7c-29.5,0-58.5,0-88.1,0
		c0-10.2-0.1-20.3,0.2-30.4c0-0.8,2.6-2.2,4-2.3c6.1-0.3,12.3-0.1,18.8-0.1c0-36.4,0-72.3,0-108.8c-7.5,0-14.9,0-22.6,0
		c0-11.4,0-22.1,0-33.3c1.5-0.1,2.9-0.4,4.3-0.4c24.8,0,49.6-0.4,74.4,0.2c9,0.2,18.3,1.5,27,3.9c30.6,8.4,41.8,31.9,39.7,60.3
		c-1.4,18.9-9,34.3-26,44c-10.1,5.8-21.3,8.4-32.8,9.2c-7.3,0.5-14.6,0.6-22,0.5c-3.3,0-4.8,0.8-4.7,4.5
		C183.2,237.1,183,243.4,183,250.7z M184.1,141.2c0,19.4,0,37.4,0,56.1c7.1-0.3,13.8-0.3,20.3-1.1c15.9-1.8,23.2-9,25.5-24.4
		c2.1-14.5-5.1-26.3-18.9-28.8C202.3,141.6,193.2,141.8,184.1,141.2z"/>
	<path d="M118,59.8c-7.8,0-13.9,0-20.3,0c0,2.7,0,4.7,0,7.2c1.2-0.3,2.2-0.6,3.1-0.8c8.8-2.6,17.2,1.5,19,9.4
		c2.3,10.1-2.8,17.8-12.7,19.3c-7.2,1.1-13.8,0-19.9-5c1.6-2,3.2-3.9,4.7-5.7c2.9,1.2,5.4,2.5,8.1,3.2c4.1,1.2,8.6,0.9,10.4-3.3
		c1.1-2.5,0.7-6.9-0.9-9.1c-2.8-3.9-7.4-3-11.4-1.1c-1.3,0.6-2.4,1.7-3.6,2.6c-4.1-0.7-5.7-3-5.3-7.3c0.4-5.6,0.1-11.2,0.1-17.5
		c8.8,0,17.1-0.3,25.3,0.3C115.7,52.1,116.5,56.3,118,59.8z"/>
	<path d="M71.8,86.1c3.9,0,7,0,10.6,0c0,2.5,0,4.7,0,7.4c-10,0-20.3,0-30.8,0c0-2.3,0-4.5,0-7.2c3.6,0,7,0,10.6,0
		c0-7.4,0-14.3,0-21.9c-2.7,2.1-4.8,3.7-7.4,5.6c-1.6-1.9-3.2-3.9-5.3-6.4c7.7-4.3,11.7-13.5,22.3-13.5
		C71.8,62.2,71.8,73.8,71.8,86.1z"/>
	<path class="st1" d="M184.1,141.2c9.2,0.6,18.2,0.3,26.9,1.9c13.8,2.5,21.1,14.3,18.9,28.8c-2.3,15.4-9.6,22.6-25.5,24.4
		c-6.6,0.7-13.2,0.7-20.3,1.1C184.1,178.7,184.1,160.6,184.1,141.2z"/>
</g>
</svg>
